<mxfile host="app.diagrams.net" agent="Mozilla/5.0 (Windows NT 10.0; Win64; x64) AppleWebKit/537.36 (KHTML, like Gecko) Chrome/129.0.0.0 Safari/537.36" version="24.7.17">
  <diagram name="Page-1" id="o49JuMgyN47GpCr__RES">
    <mxGraphModel dx="1500" dy="807" grid="1" gridSize="10" guides="1" tooltips="1" connect="1" arrows="1" fold="1" page="1" pageScale="1" pageWidth="850" pageHeight="1100" math="0" shadow="0">
      <root>
        <mxCell id="0" />
        <mxCell id="1" parent="0" />
        <mxCell id="Pp8aDYr57oXMw8BSufgp-2" value="" style="rounded=0;whiteSpace=wrap;html=1;" vertex="1" parent="1">
          <mxGeometry x="20" y="110" width="120" height="70" as="geometry" />
        </mxCell>
        <mxCell id="Pp8aDYr57oXMw8BSufgp-3" value="" style="whiteSpace=wrap;html=1;aspect=fixed;" vertex="1" parent="1">
          <mxGeometry x="30" y="120" width="20" height="20" as="geometry" />
        </mxCell>
        <mxCell id="Pp8aDYr57oXMw8BSufgp-4" value="" style="whiteSpace=wrap;html=1;aspect=fixed;" vertex="1" parent="1">
          <mxGeometry x="60" y="120" width="20" height="20" as="geometry" />
        </mxCell>
        <mxCell id="Pp8aDYr57oXMw8BSufgp-5" value="" style="whiteSpace=wrap;html=1;aspect=fixed;" vertex="1" parent="1">
          <mxGeometry x="90" y="120" width="20" height="20" as="geometry" />
        </mxCell>
        <mxCell id="Pp8aDYr57oXMw8BSufgp-6" value="" style="whiteSpace=wrap;html=1;aspect=fixed;" vertex="1" parent="1">
          <mxGeometry x="30" y="150" width="20" height="20" as="geometry" />
        </mxCell>
        <mxCell id="Pp8aDYr57oXMw8BSufgp-7" value="" style="whiteSpace=wrap;html=1;aspect=fixed;" vertex="1" parent="1">
          <mxGeometry x="60" y="150" width="20" height="20" as="geometry" />
        </mxCell>
        <mxCell id="Pp8aDYr57oXMw8BSufgp-8" value="" style="whiteSpace=wrap;html=1;aspect=fixed;" vertex="1" parent="1">
          <mxGeometry x="90" y="150" width="20" height="20" as="geometry" />
        </mxCell>
        <mxCell id="Pp8aDYr57oXMw8BSufgp-9" value="Inputs" style="rounded=0;whiteSpace=wrap;html=1;" vertex="1" parent="1">
          <mxGeometry x="20" y="50" width="120" height="60" as="geometry" />
        </mxCell>
        <mxCell id="Pp8aDYr57oXMw8BSufgp-10" value="" style="shape=flexArrow;endArrow=classic;html=1;rounded=0;" edge="1" parent="1">
          <mxGeometry width="50" height="50" relative="1" as="geometry">
            <mxPoint x="140" y="119" as="sourcePoint" />
            <mxPoint x="230" y="119" as="targetPoint" />
          </mxGeometry>
        </mxCell>
        <mxCell id="Pp8aDYr57oXMw8BSufgp-11" value="ESP32 Controller" style="rounded=0;whiteSpace=wrap;html=1;" vertex="1" parent="1">
          <mxGeometry x="230" y="90" width="120" height="60" as="geometry" />
        </mxCell>
        <mxCell id="Pp8aDYr57oXMw8BSufgp-12" value="OLED/LED Display" style="rounded=0;whiteSpace=wrap;html=1;" vertex="1" parent="1">
          <mxGeometry x="225" width="130" height="50" as="geometry" />
        </mxCell>
        <mxCell id="Pp8aDYr57oXMw8BSufgp-13" value="" style="shape=flexArrow;endArrow=classic;html=1;rounded=0;entryX=0.206;entryY=1.028;entryDx=0;entryDy=0;entryPerimeter=0;" edge="1" parent="1" target="Pp8aDYr57oXMw8BSufgp-12">
          <mxGeometry width="50" height="50" relative="1" as="geometry">
            <mxPoint x="250" y="90" as="sourcePoint" />
            <mxPoint x="300" y="40" as="targetPoint" />
          </mxGeometry>
        </mxCell>
        <mxCell id="Pp8aDYr57oXMw8BSufgp-14" value="PWM" style="rounded=0;whiteSpace=wrap;html=1;" vertex="1" parent="1">
          <mxGeometry x="400" y="115" width="50" height="25" as="geometry" />
        </mxCell>
        <mxCell id="Pp8aDYr57oXMw8BSufgp-16" value="" style="shape=flexArrow;endArrow=classic;html=1;rounded=0;" edge="1" parent="1">
          <mxGeometry width="50" height="50" relative="1" as="geometry">
            <mxPoint x="350" y="130" as="sourcePoint" />
            <mxPoint x="400" y="129.5" as="targetPoint" />
          </mxGeometry>
        </mxCell>
        <mxCell id="Pp8aDYr57oXMw8BSufgp-23" value="Ground" style="triangle;whiteSpace=wrap;html=1;" vertex="1" parent="1">
          <mxGeometry x="770" y="87.5" width="60" height="80" as="geometry" />
        </mxCell>
        <mxCell id="Pp8aDYr57oXMw8BSufgp-27" value="" style="swimlane;startSize=0;" vertex="1" parent="1">
          <mxGeometry x="540" y="45" width="200" height="200" as="geometry" />
        </mxCell>
        <mxCell id="Pp8aDYr57oXMw8BSufgp-21" value="" style="pointerEvents=1;verticalLabelPosition=bottom;shadow=0;dashed=0;align=center;html=1;verticalAlign=top;shape=mxgraph.electrical.inductors.inductor_3;" vertex="1" parent="Pp8aDYr57oXMw8BSufgp-27">
          <mxGeometry x="50" y="35" width="100" height="8" as="geometry" />
        </mxCell>
        <mxCell id="Pp8aDYr57oXMw8BSufgp-19" value="" style="pointerEvents=1;verticalLabelPosition=bottom;shadow=0;dashed=0;align=center;html=1;verticalAlign=top;shape=mxgraph.electrical.resistors.resistor_2;" vertex="1" parent="Pp8aDYr57oXMw8BSufgp-27">
          <mxGeometry x="50" y="65" width="100" height="20" as="geometry" />
        </mxCell>
        <mxCell id="Pp8aDYr57oXMw8BSufgp-20" value="" style="pointerEvents=1;verticalLabelPosition=bottom;shadow=0;dashed=0;align=center;html=1;verticalAlign=top;shape=mxgraph.electrical.capacitors.capacitor_1;" vertex="1" parent="Pp8aDYr57oXMw8BSufgp-27">
          <mxGeometry x="50" y="105" width="100" height="60" as="geometry" />
        </mxCell>
        <mxCell id="Pp8aDYr57oXMw8BSufgp-29" value="Noise Filter" style="whiteSpace=wrap;html=1;" vertex="1" parent="1">
          <mxGeometry x="580" y="10" width="120" height="60" as="geometry" />
        </mxCell>
        <mxCell id="Pp8aDYr57oXMw8BSufgp-30" value="" style="shape=flexArrow;endArrow=classic;html=1;rounded=0;entryX=0;entryY=0.423;entryDx=0;entryDy=0;entryPerimeter=0;" edge="1" parent="1" target="Pp8aDYr57oXMw8BSufgp-27">
          <mxGeometry width="50" height="50" relative="1" as="geometry">
            <mxPoint x="450" y="130" as="sourcePoint" />
            <mxPoint x="500" y="129.5" as="targetPoint" />
          </mxGeometry>
        </mxCell>
        <mxCell id="Pp8aDYr57oXMw8BSufgp-31" value="" style="shape=flexArrow;endArrow=classic;html=1;rounded=0;" edge="1" parent="1">
          <mxGeometry width="50" height="50" relative="1" as="geometry">
            <mxPoint x="425" y="140" as="sourcePoint" />
            <mxPoint x="425" y="250" as="targetPoint" />
          </mxGeometry>
        </mxCell>
        <mxCell id="Pp8aDYr57oXMw8BSufgp-32" value="Chorus" style="rounded=0;whiteSpace=wrap;html=1;" vertex="1" parent="1">
          <mxGeometry x="365" y="250" width="120" height="60" as="geometry" />
        </mxCell>
        <mxCell id="Pp8aDYr57oXMw8BSufgp-33" value="" style="shape=flexArrow;endArrow=classic;html=1;rounded=0;" edge="1" parent="1">
          <mxGeometry width="50" height="50" relative="1" as="geometry">
            <mxPoint x="425" y="310" as="sourcePoint" />
            <mxPoint x="425" y="420" as="targetPoint" />
          </mxGeometry>
        </mxCell>
        <mxCell id="Pp8aDYr57oXMw8BSufgp-34" value="Tremolo" style="rounded=0;whiteSpace=wrap;html=1;" vertex="1" parent="1">
          <mxGeometry x="365" y="420" width="120" height="60" as="geometry" />
        </mxCell>
        <mxCell id="Pp8aDYr57oXMw8BSufgp-37" value="" style="shape=flexArrow;endArrow=classic;html=1;rounded=0;" edge="1" parent="1">
          <mxGeometry width="50" height="50" relative="1" as="geometry">
            <mxPoint x="425" y="480" as="sourcePoint" />
            <mxPoint x="425" y="590" as="targetPoint" />
          </mxGeometry>
        </mxCell>
        <mxCell id="Pp8aDYr57oXMw8BSufgp-38" value="Fuzz/Dist" style="rounded=0;whiteSpace=wrap;html=1;" vertex="1" parent="1">
          <mxGeometry x="365" y="590" width="125" height="60" as="geometry" />
        </mxCell>
        <mxCell id="Pp8aDYr57oXMw8BSufgp-39" value="Class D Amp" style="rounded=0;whiteSpace=wrap;html=1;" vertex="1" parent="1">
          <mxGeometry x="90" y="590" width="120" height="60" as="geometry" />
        </mxCell>
        <mxCell id="Pp8aDYr57oXMw8BSufgp-40" value="Speaker" style="rounded=0;whiteSpace=wrap;html=1;" vertex="1" parent="1">
          <mxGeometry x="90" y="710" width="120" height="60" as="geometry" />
        </mxCell>
        <mxCell id="Pp8aDYr57oXMw8BSufgp-41" value="" style="shape=flexArrow;endArrow=classic;html=1;rounded=0;" edge="1" parent="1">
          <mxGeometry width="50" height="50" relative="1" as="geometry">
            <mxPoint x="149.5" y="650" as="sourcePoint" />
            <mxPoint x="150" y="710" as="targetPoint" />
          </mxGeometry>
        </mxCell>
        <mxCell id="Pp8aDYr57oXMw8BSufgp-42" value="" style="shape=flexArrow;endArrow=classic;html=1;rounded=0;entryX=1;entryY=0.5;entryDx=0;entryDy=0;" edge="1" parent="1">
          <mxGeometry width="50" height="50" relative="1" as="geometry">
            <mxPoint x="365" y="619.5" as="sourcePoint" />
            <mxPoint x="215" y="619.5" as="targetPoint" />
          </mxGeometry>
        </mxCell>
        <mxCell id="Pp8aDYr57oXMw8BSufgp-43" value="Rate" style="strokeWidth=1;shadow=0;dashed=0;align=center;html=1;shape=mxgraph.mockup.text.textBox;fontColor=#666666;align=left;fontSize=17;spacingLeft=4;spacingTop=-3;whiteSpace=wrap;strokeColor=#666666;mainText=" vertex="1" parent="1">
          <mxGeometry x="240" y="420" width="70" height="20" as="geometry" />
        </mxCell>
        <mxCell id="Pp8aDYr57oXMw8BSufgp-44" value="" style="shape=flexArrow;endArrow=classic;html=1;rounded=0;entryX=0;entryY=0.5;entryDx=0;entryDy=0;" edge="1" parent="1" target="Pp8aDYr57oXMw8BSufgp-23">
          <mxGeometry width="50" height="50" relative="1" as="geometry">
            <mxPoint x="740" y="130" as="sourcePoint" />
            <mxPoint x="790" y="129.5" as="targetPoint" />
          </mxGeometry>
        </mxCell>
        <mxCell id="Pp8aDYr57oXMw8BSufgp-45" value="Depth" style="strokeWidth=1;shadow=0;dashed=0;align=center;html=1;shape=mxgraph.mockup.text.textBox;fontColor=#666666;align=left;fontSize=17;spacingLeft=4;spacingTop=-3;whiteSpace=wrap;strokeColor=#666666;mainText=" vertex="1" parent="1">
          <mxGeometry x="240" y="440" width="70" height="20" as="geometry" />
        </mxCell>
        <mxCell id="Pp8aDYr57oXMw8BSufgp-46" value="On/OFF" style="strokeWidth=1;shadow=0;dashed=0;align=center;html=1;shape=mxgraph.mockup.text.textBox;fontColor=#666666;align=left;fontSize=17;spacingLeft=4;spacingTop=-3;whiteSpace=wrap;strokeColor=#666666;mainText=" vertex="1" parent="1">
          <mxGeometry x="240" y="460" width="70" height="20" as="geometry" />
        </mxCell>
        <mxCell id="Pp8aDYr57oXMw8BSufgp-47" value="" style="endArrow=classic;html=1;rounded=0;" edge="1" parent="1">
          <mxGeometry width="50" height="50" relative="1" as="geometry">
            <mxPoint x="365" y="429.5" as="sourcePoint" />
            <mxPoint x="310" y="429.5" as="targetPoint" />
            <Array as="points">
              <mxPoint x="340" y="429.5" />
            </Array>
          </mxGeometry>
        </mxCell>
        <mxCell id="Pp8aDYr57oXMw8BSufgp-48" value="" style="endArrow=classic;html=1;rounded=0;" edge="1" parent="1">
          <mxGeometry width="50" height="50" relative="1" as="geometry">
            <mxPoint x="365" y="449.5" as="sourcePoint" />
            <mxPoint x="310" y="449.5" as="targetPoint" />
            <Array as="points" />
          </mxGeometry>
        </mxCell>
        <mxCell id="Pp8aDYr57oXMw8BSufgp-49" value="" style="endArrow=classic;html=1;rounded=0;" edge="1" parent="1">
          <mxGeometry width="50" height="50" relative="1" as="geometry">
            <mxPoint x="365" y="469.5" as="sourcePoint" />
            <mxPoint x="310" y="469.5" as="targetPoint" />
            <Array as="points" />
          </mxGeometry>
        </mxCell>
        <mxCell id="Pp8aDYr57oXMw8BSufgp-50" value="Rate" style="strokeWidth=1;shadow=0;dashed=0;align=center;html=1;shape=mxgraph.mockup.text.textBox;fontColor=#666666;align=left;fontSize=17;spacingLeft=4;spacingTop=-3;whiteSpace=wrap;strokeColor=#666666;mainText=" vertex="1" parent="1">
          <mxGeometry x="240" y="250" width="70" height="20" as="geometry" />
        </mxCell>
        <mxCell id="Pp8aDYr57oXMw8BSufgp-51" value="Depth" style="strokeWidth=1;shadow=0;dashed=0;align=center;html=1;shape=mxgraph.mockup.text.textBox;fontColor=#666666;align=left;fontSize=17;spacingLeft=4;spacingTop=-3;whiteSpace=wrap;strokeColor=#666666;mainText=" vertex="1" parent="1">
          <mxGeometry x="240" y="270" width="70" height="20" as="geometry" />
        </mxCell>
        <mxCell id="Pp8aDYr57oXMw8BSufgp-52" value="On/OFF" style="strokeWidth=1;shadow=0;dashed=0;align=center;html=1;shape=mxgraph.mockup.text.textBox;fontColor=#666666;align=left;fontSize=17;spacingLeft=4;spacingTop=-3;whiteSpace=wrap;strokeColor=#666666;mainText=" vertex="1" parent="1">
          <mxGeometry x="240" y="290" width="70" height="20" as="geometry" />
        </mxCell>
        <mxCell id="Pp8aDYr57oXMw8BSufgp-53" value="" style="endArrow=classic;html=1;rounded=0;" edge="1" parent="1">
          <mxGeometry width="50" height="50" relative="1" as="geometry">
            <mxPoint x="365" y="259.5" as="sourcePoint" />
            <mxPoint x="310" y="259.5" as="targetPoint" />
            <Array as="points">
              <mxPoint x="340" y="259.5" />
            </Array>
          </mxGeometry>
        </mxCell>
        <mxCell id="Pp8aDYr57oXMw8BSufgp-54" value="" style="endArrow=classic;html=1;rounded=0;" edge="1" parent="1">
          <mxGeometry width="50" height="50" relative="1" as="geometry">
            <mxPoint x="365" y="279.5" as="sourcePoint" />
            <mxPoint x="310" y="279.5" as="targetPoint" />
            <Array as="points" />
          </mxGeometry>
        </mxCell>
        <mxCell id="Pp8aDYr57oXMw8BSufgp-55" value="" style="endArrow=classic;html=1;rounded=0;" edge="1" parent="1">
          <mxGeometry width="50" height="50" relative="1" as="geometry">
            <mxPoint x="365" y="299.5" as="sourcePoint" />
            <mxPoint x="310" y="299.5" as="targetPoint" />
            <Array as="points" />
          </mxGeometry>
        </mxCell>
        <mxCell id="Pp8aDYr57oXMw8BSufgp-56" value="Gain&amp;nbsp;" style="strokeWidth=1;shadow=0;dashed=0;align=center;html=1;shape=mxgraph.mockup.text.textBox;fontColor=#666666;align=left;fontSize=17;spacingLeft=4;spacingTop=-3;whiteSpace=wrap;strokeColor=#666666;mainText=" vertex="1" parent="1">
          <mxGeometry x="540" y="590" width="70" height="20" as="geometry" />
        </mxCell>
        <mxCell id="Pp8aDYr57oXMw8BSufgp-57" value="Level" style="strokeWidth=1;shadow=0;dashed=0;align=center;html=1;shape=mxgraph.mockup.text.textBox;fontColor=#666666;align=left;fontSize=17;spacingLeft=4;spacingTop=-3;whiteSpace=wrap;strokeColor=#666666;mainText=" vertex="1" parent="1">
          <mxGeometry x="540" y="610" width="70" height="20" as="geometry" />
        </mxCell>
        <mxCell id="Pp8aDYr57oXMw8BSufgp-58" value="Tone" style="strokeWidth=1;shadow=0;dashed=0;align=center;html=1;shape=mxgraph.mockup.text.textBox;fontColor=#666666;align=left;fontSize=17;spacingLeft=4;spacingTop=-3;whiteSpace=wrap;strokeColor=#666666;mainText=" vertex="1" parent="1">
          <mxGeometry x="540" y="630" width="70" height="20" as="geometry" />
        </mxCell>
        <mxCell id="Pp8aDYr57oXMw8BSufgp-59" value="" style="endArrow=classic;html=1;rounded=0;" edge="1" parent="1">
          <mxGeometry width="50" height="50" relative="1" as="geometry">
            <mxPoint x="540" y="599.5" as="sourcePoint" />
            <mxPoint x="540" y="600" as="targetPoint" />
            <Array as="points">
              <mxPoint x="490" y="600" />
            </Array>
          </mxGeometry>
        </mxCell>
        <mxCell id="Pp8aDYr57oXMw8BSufgp-65" value="" style="endArrow=classic;html=1;rounded=0;" edge="1" parent="1">
          <mxGeometry width="50" height="50" relative="1" as="geometry">
            <mxPoint x="540" y="619.5" as="sourcePoint" />
            <mxPoint x="540" y="620" as="targetPoint" />
            <Array as="points">
              <mxPoint x="490" y="620" />
            </Array>
          </mxGeometry>
        </mxCell>
        <mxCell id="Pp8aDYr57oXMw8BSufgp-66" value="" style="endArrow=classic;html=1;rounded=0;" edge="1" parent="1">
          <mxGeometry width="50" height="50" relative="1" as="geometry">
            <mxPoint x="540" y="639.5" as="sourcePoint" />
            <mxPoint x="540" y="640" as="targetPoint" />
            <Array as="points">
              <mxPoint x="490" y="640" />
            </Array>
          </mxGeometry>
        </mxCell>
        <mxCell id="Pp8aDYr57oXMw8BSufgp-67" value="Gain&amp;nbsp;" style="strokeWidth=1;shadow=0;dashed=0;align=center;html=1;shape=mxgraph.mockup.text.textBox;fontColor=#666666;align=left;fontSize=17;spacingLeft=4;spacingTop=-3;whiteSpace=wrap;strokeColor=#666666;mainText=" vertex="1" parent="1">
          <mxGeometry x="90" y="540" width="70" height="20" as="geometry" />
        </mxCell>
        <mxCell id="Pp8aDYr57oXMw8BSufgp-68" value="" style="endArrow=classic;html=1;rounded=0;" edge="1" parent="1">
          <mxGeometry width="50" height="50" relative="1" as="geometry">
            <mxPoint x="100" y="590" as="sourcePoint" />
            <mxPoint x="99.5" y="560" as="targetPoint" />
            <Array as="points" />
          </mxGeometry>
        </mxCell>
      </root>
    </mxGraphModel>
  </diagram>
</mxfile>
